<svg xmlns="http://www.w3.org/2000/svg" width="241.036" height="73.366" viewBox="0 0 241.036 73.366">
  <g id="Group_1" transform="translate(191.3 894.153)">
    <text id="frictionless" transform="translate(-108.264 -861.153)" fill="#070000" font-size="33" font-family="Quicksand-Light, Quicksand" font-weight="300"><tspan x="0" y="0">frictionless</tspan></text>
    <path id="Path_66" d="M-144.5-893c19.175,0,26.1,16.894,26.1,36.069s-17.232,36.323-36.323,36.323-36.576-14.529-36.576-33.7S-163.593-893-144.5-893Z" transform="translate(0 -0.179)" fill="#1ea2ff"/>
    <text id="data" transform="translate(-108.264 -829.898)" fill="#070000" font-size="33" font-family="Quicksand-Light, Quicksand" font-weight="300"><tspan x="0" y="0">data</tspan></text>
    <text id="frictionless-2" data-name="frictionless" transform="translate(-108.264 -861.153)" fill="#01060a" font-size="33" font-family="Quicksand-Light, Quicksand" font-weight="300"><tspan x="0" y="0">frictionless</tspan></text>
    <g id="Group_2" data-name="Group 2" transform="translate(-168.999 -870.963)">
      <path id="Path_2" data-name="Path 2" d="M-139.812-865.517a2.142,2.142,0,0,0-1.014-.169,3.037,3.037,0,0,0-.929.169c-1.183.253-2.281,1.436-3.463,3.632-.338.591-1.267,2.619-2.956,6.5l2.45.084a8.713,8.713,0,0,0,1.689-.169c0,.169-.929.676-1.267.76a7.057,7.057,0,0,1-2.957.338h-.338c-1.352,3.294-2.112,5.491-2.619,6.589s-1.014,2.027-1.436,2.872c-.422.76-1.014,1.6-1.6,2.45a16.272,16.272,0,0,1-2.027,2.112,8.162,8.162,0,0,1-2.2,1.605,5.614,5.614,0,0,1-2.872.507c-1.858-.169-3.041-.76-3.463-1.858a.919.919,0,0,1-.084-.422v-.422c0-.084.084-.169.084-.253a1.428,1.428,0,0,1,.169-.422,1.427,1.427,0,0,0,.169-.422,3.324,3.324,0,0,1,.169-.507c.084-.253.253-.422.253-.507s.084-.169.169-.253a.31.31,0,0,1,.253.084c.084.084,0,.253-.084.507a3,3,0,0,0-.169.845,2.5,2.5,0,0,0,.169.845c.422,1.1,1.352,1.6,2.957,1.774h.422a3.4,3.4,0,0,0,1.689-.591c1.52-.76,2.7-2.365,4.055-4.984a34.988,34.988,0,0,0,2.281-5.153c.845-2.2,1.689-3.717,1.943-4.477l-.76.084a7.031,7.031,0,0,0-1.014.085h-1.6a2.961,2.961,0,0,1,1.436-1.014,9.187,9.187,0,0,1,1.52-.084l.845-.084c2.365-5.491,4.477-8.87,6.42-10.221a6.411,6.411,0,0,1,3.886-1.014,2.249,2.249,0,0,1,1.014.253c.253.169.253.422.253.76l-.084,1.183a.182.182,0,0,1-.169.169h-.169A1.265,1.265,0,0,0-139.812-865.517Z" transform="translate(164.9 866.7)" fill="#fff"/>
    </g>
    <text id="data-2" data-name="data" transform="translate(-108.264 -829.898)" fill="#000305" font-size="33" font-family="Quicksand-Light, Quicksand" font-weight="300"><tspan x="0" y="0">data</tspan></text>
  </g>
</svg>
